<svg id="visual" viewBox="0 0 900 600" width="900" height="600" xmlns="http://www.w3.org/2000/svg" xmlns:xlink="http://www.w3.org/1999/xlink" version="1.1"><g stroke-width="1" stroke-linejoin="bevel"><path d="M466 311L454 372L499.3 358Z" fill="#dde1e4" stroke="#dde1e4"></path><path d="M454 372L485.3 390L499.3 358Z" fill="#dde1e4" stroke="#dde1e4"></path><path d="M454 372L459 406L485.3 390Z" fill="#dbe0e2" stroke="#dbe0e2"></path><path d="M580.6 330L525.3 310L499.3 358Z" fill="#e0e3e7" stroke="#e0e3e7"></path><path d="M499.3 358L525.3 310L466 311Z" fill="#d6dbdc" stroke="#d6dbdc"></path><path d="M460 251L407.7 288L466 311Z" fill="#dbe0e2" stroke="#dbe0e2"></path><path d="M466 311L381.7 338L454 372Z" fill="#dadfe1" stroke="#dadfe1"></path><path d="M454 372L415.7 420L459 406Z" fill="#d6dbdc" stroke="#d6dbdc"></path><path d="M407.7 288L381.7 338L466 311Z" fill="#d6dbdc" stroke="#d6dbdc"></path><path d="M525.3 310L510.3 264L466 311Z" fill="#e0e3e7" stroke="#e0e3e7"></path><path d="M510.3 264L460 251L466 311Z" fill="#d9dddf" stroke="#d9dddf"></path><path d="M381.7 338L415.7 420L454 372Z" fill="#e5e7eb" stroke="#e5e7eb"></path><path d="M580.6 397L580.6 330L499.3 358Z" fill="#dde1e4" stroke="#dde1e4"></path><path d="M525.3 310L562.6 268L510.3 264Z" fill="#d9dddf" stroke="#d9dddf"></path><path d="M580.6 330L562.6 268L525.3 310Z" fill="#e5e7eb" stroke="#e5e7eb"></path><path d="M489.3 166L420 191L460 251Z" fill="#d7dcde" stroke="#d7dcde"></path><path d="M584.6 447L580.6 397L485.3 390Z" fill="#dfe2e5" stroke="#dfe2e5"></path><path d="M485.3 390L580.6 397L499.3 358Z" fill="#d6dbdc" stroke="#d6dbdc"></path><path d="M536.3 494L485.3 390L459 406Z" fill="#d7dcde" stroke="#d7dcde"></path><path d="M415.7 420L442 466L459 406Z" fill="#e5e7eb" stroke="#e5e7eb"></path><path d="M324.4 375L342.4 398L381.7 338Z" fill="#e3e6ea" stroke="#e3e6ea"></path><path d="M381.7 338L342.4 398L415.7 420Z" fill="#e2e5e8" stroke="#e2e5e8"></path><path d="M415.7 420L377.7 477L442 466Z" fill="#d9dddf" stroke="#d9dddf"></path><path d="M326.4 299L324.4 375L381.7 338Z" fill="#e0e3e7" stroke="#e0e3e7"></path><path d="M380.7 217L326.4 299L407.7 288Z" fill="#e5e7eb" stroke="#e5e7eb"></path><path d="M407.7 288L326.4 299L381.7 338Z" fill="#e2e5e8" stroke="#e2e5e8"></path><path d="M536.3 494L584.6 447L485.3 390Z" fill="#dadfe1" stroke="#dadfe1"></path><path d="M658.9 313L619.9 270L580.6 330Z" fill="#dfe2e5" stroke="#dfe2e5"></path><path d="M420 191L380.7 217L460 251Z" fill="#d6dbdc" stroke="#d6dbdc"></path><path d="M460 251L380.7 217L407.7 288Z" fill="#e2e5e8" stroke="#e2e5e8"></path><path d="M489.3 166L460 251L510.3 264Z" fill="#dde1e4" stroke="#dde1e4"></path><path d="M364.7 523L377.7 477L312.4 483Z" fill="#d9dddf" stroke="#d9dddf"></path><path d="M342.4 398L377.7 477L415.7 420Z" fill="#dde1e4" stroke="#dde1e4"></path><path d="M442 466L536.3 494L459 406Z" fill="#d9dddf" stroke="#d9dddf"></path><path d="M460 511L536.3 494L442 466Z" fill="#dbe0e2" stroke="#dbe0e2"></path><path d="M580.6 330L619.9 270L562.6 268Z" fill="#dadfe1" stroke="#dadfe1"></path><path d="M562.6 268L556.6 183L510.3 264Z" fill="#d7dcde" stroke="#d7dcde"></path><path d="M658.9 313L580.6 330L662.9 345Z" fill="#e2e5e8" stroke="#e2e5e8"></path><path d="M377.7 477L460 511L442 466Z" fill="#e5e7eb" stroke="#e5e7eb"></path><path d="M619.9 270L599.6 233L562.6 268Z" fill="#dfe2e5" stroke="#dfe2e5"></path><path d="M556.6 183L489.3 166L510.3 264Z" fill="#d7dcde" stroke="#d7dcde"></path><path d="M599.6 233L556.6 183L562.6 268Z" fill="#e0e3e7" stroke="#e0e3e7"></path><path d="M303.4 210L317.4 239L380.7 217Z" fill="#dadfe1" stroke="#dadfe1"></path><path d="M380.7 217L317.4 239L326.4 299Z" fill="#dde1e4" stroke="#dde1e4"></path><path d="M326.4 299L269.1 311L324.4 375Z" fill="#d7dcde" stroke="#d7dcde"></path><path d="M445 600L493.3 527L460 511Z" fill="#d9dddf" stroke="#d9dddf"></path><path d="M460 511L493.3 527L536.3 494Z" fill="#dfe2e5" stroke="#dfe2e5"></path><path d="M662.9 345L580.6 330L580.6 397Z" fill="#e2e5e8" stroke="#e2e5e8"></path><path d="M678.1 232L624.9 186L599.6 233Z" fill="#e3e6ea" stroke="#e3e6ea"></path><path d="M670.9 391L662.9 345L580.6 397Z" fill="#dadfe1" stroke="#dadfe1"></path><path d="M592.6 96L536.3 153L556.6 183Z" fill="#e3e6ea" stroke="#e3e6ea"></path><path d="M556.6 183L536.3 153L489.3 166Z" fill="#dde1e4" stroke="#dde1e4"></path><path d="M596.6 513L616.9 484L584.6 447Z" fill="#d6dbdc" stroke="#d6dbdc"></path><path d="M584.6 447L670.9 391L580.6 397Z" fill="#dadfe1" stroke="#dadfe1"></path><path d="M596.6 513L584.6 447L536.3 494Z" fill="#dfe2e5" stroke="#dfe2e5"></path><path d="M258.1 254L269.1 311L326.4 299Z" fill="#d9dddf" stroke="#d9dddf"></path><path d="M312.4 483L377.7 477L342.4 398Z" fill="#dde1e4" stroke="#dde1e4"></path><path d="M670.9 391L674.1 346L662.9 345Z" fill="#dde1e4" stroke="#dde1e4"></path><path d="M662.9 345L674.1 346L658.9 313Z" fill="#d6dbdc" stroke="#d6dbdc"></path><path d="M677.1 467L670.9 391L584.6 447Z" fill="#dde1e4" stroke="#dde1e4"></path><path d="M312.4 483L342.4 398L239.1 465Z" fill="#dadfe1" stroke="#dadfe1"></path><path d="M377.7 477L364.7 523L460 511Z" fill="#e5e7eb" stroke="#e5e7eb"></path><path d="M224.1 430L342.4 398L324.4 375Z" fill="#dbe0e2" stroke="#dbe0e2"></path><path d="M584.6 600L596.6 513L536.3 494Z" fill="#e2e5e8" stroke="#e2e5e8"></path><path d="M360.7 151L303.4 210L380.7 217Z" fill="#dfe2e5" stroke="#dfe2e5"></path><path d="M317.4 239L258.1 254L326.4 299Z" fill="#dadfe1" stroke="#dadfe1"></path><path d="M383.7 147L380.7 217L420 191Z" fill="#dfe2e5" stroke="#dfe2e5"></path><path d="M383.7 147L420 191L443 112Z" fill="#dbe0e2" stroke="#dbe0e2"></path><path d="M443 112L420 191L489.3 166Z" fill="#e5e7eb" stroke="#e5e7eb"></path><path d="M599.6 233L624.9 186L556.6 183Z" fill="#dfe2e5" stroke="#dfe2e5"></path><path d="M678.1 232L599.6 233L619.9 270Z" fill="#d9dddf" stroke="#d9dddf"></path><path d="M678.1 232L619.9 270L658.9 313Z" fill="#dbe0e2" stroke="#dbe0e2"></path><path d="M383.7 147L360.7 151L380.7 217Z" fill="#e3e6ea" stroke="#e3e6ea"></path><path d="M219.9 349L244.1 349L269.1 311Z" fill="#dde1e4" stroke="#dde1e4"></path><path d="M269.1 311L244.1 349L324.4 375Z" fill="#dde1e4" stroke="#dde1e4"></path><path d="M230.1 194L258.1 254L303.4 210Z" fill="#d6dbdc" stroke="#d6dbdc"></path><path d="M303.4 210L258.1 254L317.4 239Z" fill="#dbe0e2" stroke="#dbe0e2"></path><path d="M329.4 79L309.4 135L360.7 151Z" fill="#dadfe1" stroke="#dadfe1"></path><path d="M522.3 91L443 112L489.3 166Z" fill="#d9dddf" stroke="#d9dddf"></path><path d="M522.3 91L489.3 166L536.3 153Z" fill="#d6dbdc" stroke="#d6dbdc"></path><path d="M735.1 268L678.1 232L658.9 313Z" fill="#d9dddf" stroke="#d9dddf"></path><path d="M239.1 465L303.4 514L312.4 483Z" fill="#d9dddf" stroke="#d9dddf"></path><path d="M312.4 483L303.4 514L364.7 523Z" fill="#e2e5e8" stroke="#e2e5e8"></path><path d="M616.9 484L677.1 467L584.6 447Z" fill="#e5e7eb" stroke="#e5e7eb"></path><path d="M670.9 391L739.4 320L674.1 346Z" fill="#e5e7eb" stroke="#e5e7eb"></path><path d="M674.1 346L739.4 320L658.9 313Z" fill="#dbe0e2" stroke="#dbe0e2"></path><path d="M652.9 515L677.1 467L616.9 484Z" fill="#d9dddf" stroke="#d9dddf"></path><path d="M677.1 467L694.1 445L670.9 391Z" fill="#dbe0e2" stroke="#dbe0e2"></path><path d="M193.9 272L219.9 349L269.1 311Z" fill="#e5e7eb" stroke="#e5e7eb"></path><path d="M244.1 349L224.1 430L324.4 375Z" fill="#e0e3e7" stroke="#e0e3e7"></path><path d="M638.9 600L652.9 515L596.6 513Z" fill="#e3e6ea" stroke="#e3e6ea"></path><path d="M596.6 513L652.9 515L616.9 484Z" fill="#d9dddf" stroke="#d9dddf"></path><path d="M677.1 467L777.4 458L694.1 445Z" fill="#dadfe1" stroke="#dadfe1"></path><path d="M371.7 600L445 600L364.7 523Z" fill="#dfe2e5" stroke="#dfe2e5"></path><path d="M364.7 523L445 600L460 511Z" fill="#e0e3e7" stroke="#e0e3e7"></path><path d="M493.3 527L517.3 600L536.3 494Z" fill="#e5e7eb" stroke="#e5e7eb"></path><path d="M552.6 87L536.3 153L592.6 96Z" fill="#dfe2e5" stroke="#dfe2e5"></path><path d="M552.6 87L522.3 91L536.3 153Z" fill="#dde1e4" stroke="#dde1e4"></path><path d="M652.9 515L673.1 506L677.1 467Z" fill="#e0e3e7" stroke="#e0e3e7"></path><path d="M219.9 349L224.1 430L244.1 349Z" fill="#e0e3e7" stroke="#e0e3e7"></path><path d="M445 600L517.3 600L493.3 527Z" fill="#dbe0e2" stroke="#dbe0e2"></path><path d="M702.1 600L742.4 550L673.1 506Z" fill="#dbe0e2" stroke="#dbe0e2"></path><path d="M224.1 430L239.1 465L342.4 398Z" fill="#e2e5e8" stroke="#e2e5e8"></path><path d="M420 81L383.7 147L443 112Z" fill="#e2e5e8" stroke="#e2e5e8"></path><path d="M364.7 72L360.7 151L383.7 147Z" fill="#dfe2e5" stroke="#dfe2e5"></path><path d="M360.7 151L309.4 135L303.4 210Z" fill="#d9dddf" stroke="#d9dddf"></path><path d="M522.3 91L420 81L443 112Z" fill="#e5e7eb" stroke="#e5e7eb"></path><path d="M592.6 96L556.6 183L624.9 186Z" fill="#dadfe1" stroke="#dadfe1"></path><path d="M522.3 91L448 0L420 81Z" fill="#d7dcde" stroke="#d7dcde"></path><path d="M786.4 355L670.9 391L694.1 445Z" fill="#d9dddf" stroke="#d9dddf"></path><path d="M786.4 355L739.4 320L670.9 391Z" fill="#dfe2e5" stroke="#dfe2e5"></path><path d="M735.1 268L699.1 196L678.1 232Z" fill="#e3e6ea" stroke="#e3e6ea"></path><path d="M678.1 232L699.1 196L624.9 186Z" fill="#e5e7eb" stroke="#e5e7eb"></path><path d="M353.4 600L371.7 600L364.7 523Z" fill="#dbe0e2" stroke="#dbe0e2"></path><path d="M353.4 600L364.7 523L303.4 514Z" fill="#d6dbdc" stroke="#d6dbdc"></path><path d="M739.4 320L735.1 268L658.9 313Z" fill="#d7dcde" stroke="#d7dcde"></path><path d="M666.9 112L592.6 96L624.9 186Z" fill="#d6dbdc" stroke="#d6dbdc"></path><path d="M517.3 600L584.6 600L536.3 494Z" fill="#d6dbdc" stroke="#d6dbdc"></path><path d="M270.1 600L353.4 600L303.4 514Z" fill="#dbe0e2" stroke="#dbe0e2"></path><path d="M237.1 140L230.1 194L303.4 210Z" fill="#d6dbdc" stroke="#d6dbdc"></path><path d="M258.1 254L193.9 272L269.1 311Z" fill="#d7dcde" stroke="#d7dcde"></path><path d="M230.1 194L218.9 209L258.1 254Z" fill="#dadfe1" stroke="#dadfe1"></path><path d="M218.9 209L193.9 272L258.1 254Z" fill="#dbe0e2" stroke="#dbe0e2"></path><path d="M219.9 349L160.9 437L224.1 430Z" fill="#e3e6ea" stroke="#e3e6ea"></path><path d="M361.7 0L364.7 72L420 81Z" fill="#e5e7eb" stroke="#e5e7eb"></path><path d="M420 81L364.7 72L383.7 147Z" fill="#dde1e4" stroke="#dde1e4"></path><path d="M309.4 135L237.1 140L303.4 210Z" fill="#e2e5e8" stroke="#e2e5e8"></path><path d="M364.7 72L329.4 79L360.7 151Z" fill="#dbe0e2" stroke="#dbe0e2"></path><path d="M735.1 268L755.4 250L699.1 196Z" fill="#d7dcde" stroke="#d7dcde"></path><path d="M739.4 320L755.4 250L735.1 268Z" fill="#dde1e4" stroke="#dde1e4"></path><path d="M521.3 0L522.3 91L552.6 87Z" fill="#e0e3e7" stroke="#e0e3e7"></path><path d="M699.1 196L666.9 112L624.9 186Z" fill="#dbe0e2" stroke="#dbe0e2"></path><path d="M718.1 139L666.9 112L699.1 196Z" fill="#e0e3e7" stroke="#e0e3e7"></path><path d="M584.6 600L638.9 600L596.6 513Z" fill="#d6dbdc" stroke="#d6dbdc"></path><path d="M230.1 194L158.6 216L218.9 209Z" fill="#dde1e4" stroke="#dde1e4"></path><path d="M218.9 209L165.9 234L193.9 272Z" fill="#e2e5e8" stroke="#e2e5e8"></path><path d="M235.1 89L237.1 140L309.4 135Z" fill="#d7dcde" stroke="#d7dcde"></path><path d="M777.4 458L786.4 355L694.1 445Z" fill="#e2e5e8" stroke="#e2e5e8"></path><path d="M739.4 320L786.4 355L755.4 250Z" fill="#e0e3e7" stroke="#e0e3e7"></path><path d="M777.4 458L677.1 467L673.1 506Z" fill="#e5e7eb" stroke="#e5e7eb"></path><path d="M766.4 149L718.1 139L699.1 196Z" fill="#e0e3e7" stroke="#e0e3e7"></path><path d="M130.6 357L160.9 437L219.9 349Z" fill="#dbe0e2" stroke="#dbe0e2"></path><path d="M224.1 430L161.9 475L239.1 465Z" fill="#dadfe1" stroke="#dadfe1"></path><path d="M227.1 562L270.1 600L303.4 514Z" fill="#e5e7eb" stroke="#e5e7eb"></path><path d="M158.6 216L165.9 234L218.9 209Z" fill="#d7dcde" stroke="#d7dcde"></path><path d="M127.6 300L130.6 357L219.9 349Z" fill="#e5e7eb" stroke="#e5e7eb"></path><path d="M227.1 562L303.4 514L239.1 465Z" fill="#e3e6ea" stroke="#e3e6ea"></path><path d="M166.9 518L227.1 562L239.1 465Z" fill="#e0e3e7" stroke="#e0e3e7"></path><path d="M742.4 550L777.4 458L673.1 506Z" fill="#d6dbdc" stroke="#d6dbdc"></path><path d="M160.9 437L161.9 475L224.1 430Z" fill="#e5e7eb" stroke="#e5e7eb"></path><path d="M237.1 140L158.6 216L230.1 194Z" fill="#d6dbdc" stroke="#d6dbdc"></path><path d="M127.6 300L219.9 349L193.9 272Z" fill="#dfe2e5" stroke="#dfe2e5"></path><path d="M127.6 300L193.9 272L165.9 234Z" fill="#e3e6ea" stroke="#e3e6ea"></path><path d="M160.9 437L130.6 453L161.9 475Z" fill="#d9dddf" stroke="#d9dddf"></path><path d="M857.7 476L793.4 448L777.4 458Z" fill="#e0e3e7" stroke="#e0e3e7"></path><path d="M777.4 458L793.4 448L786.4 355Z" fill="#dde1e4" stroke="#dde1e4"></path><path d="M702.1 600L673.1 506L652.9 515Z" fill="#d7dcde" stroke="#d7dcde"></path><path d="M521.3 0L552.6 87L607.6 0Z" fill="#dde1e4" stroke="#dde1e4"></path><path d="M521.3 0L448 0L522.3 91Z" fill="#e2e5e8" stroke="#e2e5e8"></path><path d="M364.7 72L361.7 0L329.4 79Z" fill="#dfe2e5" stroke="#dfe2e5"></path><path d="M329.4 79L235.1 89L309.4 135Z" fill="#d9dddf" stroke="#d9dddf"></path><path d="M80.3 269L127.6 300L165.9 234Z" fill="#e2e5e8" stroke="#e2e5e8"></path><path d="M638.9 600L702.1 600L652.9 515Z" fill="#d7dcde" stroke="#d7dcde"></path><path d="M306.4 0L235.1 89L329.4 79Z" fill="#dfe2e5" stroke="#dfe2e5"></path><path d="M183.9 91L127.6 199L158.6 216Z" fill="#d9dddf" stroke="#d9dddf"></path><path d="M607.6 0L552.6 87L592.6 96Z" fill="#e3e6ea" stroke="#e3e6ea"></path><path d="M649.9 37L592.6 96L666.9 112Z" fill="#d7dcde" stroke="#d7dcde"></path><path d="M161.9 475L166.9 518L239.1 465Z" fill="#e0e3e7" stroke="#e0e3e7"></path><path d="M227.1 562L201.9 600L270.1 600Z" fill="#d7dcde" stroke="#d7dcde"></path><path d="M100.6 534L166.9 518L161.9 475Z" fill="#d9dddf" stroke="#d9dddf"></path><path d="M793.4 448L823.7 356L786.4 355Z" fill="#d6dbdc" stroke="#d6dbdc"></path><path d="M786.4 355L853.7 287L755.4 250Z" fill="#e2e5e8" stroke="#e2e5e8"></path><path d="M755.4 250L766.4 149L699.1 196Z" fill="#dde1e4" stroke="#dde1e4"></path><path d="M823.7 213L766.4 149L755.4 250Z" fill="#dadfe1" stroke="#dadfe1"></path><path d="M717.1 56L649.9 37L666.9 112Z" fill="#dadfe1" stroke="#dadfe1"></path><path d="M717.1 56L666.9 112L718.1 139Z" fill="#dadfe1" stroke="#dadfe1"></path><path d="M98.6 386L160.9 437L130.6 357Z" fill="#dbe0e2" stroke="#dbe0e2"></path><path d="M98.6 386L130.6 453L160.9 437Z" fill="#e2e5e8" stroke="#e2e5e8"></path><path d="M448 0L361.7 0L420 81Z" fill="#e2e5e8" stroke="#e2e5e8"></path><path d="M247.1 0L217.9 84L235.1 89Z" fill="#e3e6ea" stroke="#e3e6ea"></path><path d="M235.1 89L217.9 84L237.1 140Z" fill="#dbe0e2" stroke="#dbe0e2"></path><path d="M649.9 37L607.6 0L592.6 96Z" fill="#dde1e4" stroke="#dde1e4"></path><path d="M148.6 600L201.9 600L166.9 518Z" fill="#e5e7eb" stroke="#e5e7eb"></path><path d="M166.9 518L201.9 600L227.1 562Z" fill="#e2e5e8" stroke="#e2e5e8"></path><path d="M158.6 216L127.6 199L165.9 234Z" fill="#e0e3e7" stroke="#e0e3e7"></path><path d="M183.9 91L158.6 216L237.1 140Z" fill="#d6dbdc" stroke="#d6dbdc"></path><path d="M740.1 0L616.9 0L649.9 37Z" fill="#dadfe1" stroke="#dadfe1"></path><path d="M649.9 37L616.9 0L607.6 0Z" fill="#e3e6ea" stroke="#e3e6ea"></path><path d="M40.3 306L98.6 386L130.6 357Z" fill="#e2e5e8" stroke="#e2e5e8"></path><path d="M40.3 306L130.6 357L127.6 300Z" fill="#d7dcde" stroke="#d7dcde"></path><path d="M853.7 287L823.7 213L755.4 250Z" fill="#e3e6ea" stroke="#e3e6ea"></path><path d="M765.4 87L717.1 56L718.1 139Z" fill="#e3e6ea" stroke="#e3e6ea"></path><path d="M765.4 87L718.1 139L766.4 149Z" fill="#dadfe1" stroke="#dadfe1"></path><path d="M361.7 0L306.4 0L329.4 79Z" fill="#dbe0e2" stroke="#dbe0e2"></path><path d="M187.9 0L183.9 91L217.9 84Z" fill="#e3e6ea" stroke="#e3e6ea"></path><path d="M217.9 84L183.9 91L237.1 140Z" fill="#e3e6ea" stroke="#e3e6ea"></path><path d="M900 332L853.7 287L823.7 356Z" fill="#e3e6ea" stroke="#e3e6ea"></path><path d="M823.7 356L853.7 287L786.4 355Z" fill="#dde1e4" stroke="#dde1e4"></path><path d="M98.6 386L97.3 459L130.6 453Z" fill="#dadfe1" stroke="#dadfe1"></path><path d="M130.6 453L100.6 534L161.9 475Z" fill="#e0e3e7" stroke="#e0e3e7"></path><path d="M806.7 139L765.4 87L766.4 149Z" fill="#e0e3e7" stroke="#e0e3e7"></path><path d="M702.1 600L767.4 600L742.4 550Z" fill="#dfe2e5" stroke="#dfe2e5"></path><path d="M830.7 546L857.7 476L777.4 458Z" fill="#d9dddf" stroke="#d9dddf"></path><path d="M793.4 448L867.7 452L823.7 356Z" fill="#e2e5e8" stroke="#e2e5e8"></path><path d="M855.7 191L806.7 139L823.7 213Z" fill="#dbe0e2" stroke="#dbe0e2"></path><path d="M823.7 213L806.7 139L766.4 149Z" fill="#e3e6ea" stroke="#e3e6ea"></path><path d="M91.3 166L80.3 269L127.6 199Z" fill="#e2e5e8" stroke="#e2e5e8"></path><path d="M127.6 199L80.3 269L165.9 234Z" fill="#e5e7eb" stroke="#e5e7eb"></path><path d="M98.6 386L67.3 394L97.3 459Z" fill="#e3e6ea" stroke="#e3e6ea"></path><path d="M60.3 391L67.3 394L98.6 386Z" fill="#e0e3e7" stroke="#e0e3e7"></path><path d="M306.4 0L247.1 0L235.1 89Z" fill="#d7dcde" stroke="#d7dcde"></path><path d="M830.7 546L777.4 458L742.4 550Z" fill="#dfe2e5" stroke="#dfe2e5"></path><path d="M96.3 552L148.6 600L166.9 518Z" fill="#dfe2e5" stroke="#dfe2e5"></path><path d="M100.6 534L130.6 453L97.3 459Z" fill="#d7dcde" stroke="#d7dcde"></path><path d="M857.7 476L867.7 452L793.4 448Z" fill="#dde1e4" stroke="#dde1e4"></path><path d="M40.3 306L60.3 391L98.6 386Z" fill="#dde1e4" stroke="#dde1e4"></path><path d="M67.3 394L0 448L97.3 459Z" fill="#e5e7eb" stroke="#e5e7eb"></path><path d="M767.4 600L830.7 546L742.4 550Z" fill="#dfe2e5" stroke="#dfe2e5"></path><path d="M900 507L900 406L867.7 452Z" fill="#e2e5e8" stroke="#e2e5e8"></path><path d="M900 214L855.7 191L823.7 213Z" fill="#d9dddf" stroke="#d9dddf"></path><path d="M750.4 0L717.1 56L765.4 87Z" fill="#e0e3e7" stroke="#e0e3e7"></path><path d="M900 214L823.7 213L853.7 287Z" fill="#e5e7eb" stroke="#e5e7eb"></path><path d="M0 539L100.6 534L97.3 459Z" fill="#e2e5e8" stroke="#e2e5e8"></path><path d="M138.6 35L140.6 88L183.9 91Z" fill="#d6dbdc" stroke="#d6dbdc"></path><path d="M183.9 91L140.6 88L127.6 199Z" fill="#dbe0e2" stroke="#dbe0e2"></path><path d="M140.6 88L91.3 166L127.6 199Z" fill="#e5e7eb" stroke="#e5e7eb"></path><path d="M80.3 269L40.3 306L127.6 300Z" fill="#dbe0e2" stroke="#dbe0e2"></path><path d="M0 539L96.3 552L100.6 534Z" fill="#d6dbdc" stroke="#d6dbdc"></path><path d="M100.6 534L96.3 552L166.9 518Z" fill="#e0e3e7" stroke="#e0e3e7"></path><path d="M900 368L900 332L823.7 356Z" fill="#e3e6ea" stroke="#e3e6ea"></path><path d="M900 406L900 368L823.7 356Z" fill="#dfe2e5" stroke="#dfe2e5"></path><path d="M0 286L40.3 306L80.3 269Z" fill="#d6dbdc" stroke="#d6dbdc"></path><path d="M60.3 391L0 425L67.3 394Z" fill="#e5e7eb" stroke="#e5e7eb"></path><path d="M867.7 452L900 406L823.7 356Z" fill="#e3e6ea" stroke="#e3e6ea"></path><path d="M900 507L867.7 452L857.7 476Z" fill="#dfe2e5" stroke="#dfe2e5"></path><path d="M750.4 0L765.4 87L802.4 26Z" fill="#dadfe1" stroke="#dadfe1"></path><path d="M750.4 0L740.1 0L717.1 56Z" fill="#e3e6ea" stroke="#e3e6ea"></path><path d="M717.1 56L740.1 0L649.9 37Z" fill="#d9dddf" stroke="#d9dddf"></path><path d="M802.4 26L765.4 87L846.7 41Z" fill="#d7dcde" stroke="#d7dcde"></path><path d="M140.6 88L69.3 146L91.3 166Z" fill="#d6dbdc" stroke="#d6dbdc"></path><path d="M247.1 0L187.9 0L217.9 84Z" fill="#dfe2e5" stroke="#dfe2e5"></path><path d="M767.4 600L833.7 600L830.7 546Z" fill="#dadfe1" stroke="#dadfe1"></path><path d="M830.7 546L900 507L857.7 476Z" fill="#dfe2e5" stroke="#dfe2e5"></path><path d="M82.3 69L69.3 146L140.6 88Z" fill="#d7dcde" stroke="#d7dcde"></path><path d="M91.3 166L0 225L80.3 269Z" fill="#d7dcde" stroke="#d7dcde"></path><path d="M900 332L900 214L853.7 287Z" fill="#dbe0e2" stroke="#dbe0e2"></path><path d="M846.7 41L765.4 87L806.7 139Z" fill="#dbe0e2" stroke="#dbe0e2"></path><path d="M187.9 0L138.6 35L183.9 91Z" fill="#e0e3e7" stroke="#e0e3e7"></path><path d="M900 149L806.7 139L855.7 191Z" fill="#dfe2e5" stroke="#dfe2e5"></path><path d="M900 214L900 181L855.7 191Z" fill="#dfe2e5" stroke="#dfe2e5"></path><path d="M900 572L900 507L830.7 546Z" fill="#d6dbdc" stroke="#d6dbdc"></path><path d="M0 286L0 380L40.3 306Z" fill="#d9dddf" stroke="#d9dddf"></path><path d="M40.3 306L0 380L60.3 391Z" fill="#d9dddf" stroke="#d9dddf"></path><path d="M900 181L900 149L855.7 191Z" fill="#dde1e4" stroke="#dde1e4"></path><path d="M0 225L0 286L80.3 269Z" fill="#dde1e4" stroke="#dde1e4"></path><path d="M138.6 35L82.3 69L140.6 88Z" fill="#d7dcde" stroke="#d7dcde"></path><path d="M69.3 146L0 225L91.3 166Z" fill="#dbe0e2" stroke="#dbe0e2"></path><path d="M94.6 0L82.3 69L138.6 35Z" fill="#dfe2e5" stroke="#dfe2e5"></path><path d="M0 380L0 425L60.3 391Z" fill="#dfe2e5" stroke="#dfe2e5"></path><path d="M0 425L0 448L67.3 394Z" fill="#dde1e4" stroke="#dde1e4"></path><path d="M900 65L846.7 41L806.7 139Z" fill="#d9dddf" stroke="#d9dddf"></path><path d="M802.4 26L863.7 0L750.4 0Z" fill="#d7dcde" stroke="#d7dcde"></path><path d="M0 154L0 225L69.3 146Z" fill="#e2e5e8" stroke="#e2e5e8"></path><path d="M0 539L56.3 600L96.3 552Z" fill="#d6dbdc" stroke="#d6dbdc"></path><path d="M96.3 552L56.3 600L148.6 600Z" fill="#d9dddf" stroke="#d9dddf"></path><path d="M833.7 600L900 572L830.7 546Z" fill="#d6dbdc" stroke="#d6dbdc"></path><path d="M833.7 600L900 600L900 572Z" fill="#e5e7eb" stroke="#e5e7eb"></path><path d="M0 91L0 154L69.3 146Z" fill="#d7dcde" stroke="#d7dcde"></path><path d="M187.9 0L94.6 0L138.6 35Z" fill="#d9dddf" stroke="#d9dddf"></path><path d="M82.3 69L0 91L69.3 146Z" fill="#dadfe1" stroke="#dadfe1"></path><path d="M0 448L0 539L97.3 459Z" fill="#dbe0e2" stroke="#dbe0e2"></path><path d="M94.6 0L92.3 0L82.3 69Z" fill="#d7dcde" stroke="#d7dcde"></path><path d="M900 149L900 65L806.7 139Z" fill="#d9dddf" stroke="#d9dddf"></path><path d="M900 0L863.7 0L846.7 41Z" fill="#dadfe1" stroke="#dadfe1"></path><path d="M846.7 41L863.7 0L802.4 26Z" fill="#dadfe1" stroke="#dadfe1"></path><path d="M0 80L0 91L82.3 69Z" fill="#dde1e4" stroke="#dde1e4"></path><path d="M0 539L0 600L56.3 600Z" fill="#d7dcde" stroke="#d7dcde"></path><path d="M0 0L0 80L82.3 69Z" fill="#e5e7eb" stroke="#e5e7eb"></path><path d="M900 65L900 0L846.7 41Z" fill="#d7dcde" stroke="#d7dcde"></path><path d="M92.3 0L0 0L82.3 69Z" fill="#dadfe1" stroke="#dadfe1"></path></g></svg>